#N canvas 827 239 527 327 12;
#X floatatom 460 788 5 0 0 0 - - - 16;
#X obj 460 535 bng 25 250 50 0 empty empty empty 17 7 0 10 #ffffff #000000 #000000;
#X obj 460 762 counter 0 5 @carryflag 1;
#X obj 628 788 counter 0 5 @carryflag 1;
#X floatatom 628 814 5 0 0 0 - - - 16;
#X floatatom 628 677 5 0 0 0 - - - 12;
#X obj 628 648 - 1;
#X obj 460 854 / 5;
#X obj 628 854 / 5;
#X floatatom 628 894 5 0 0 0 - - - 12;
#X floatatom 459 894 5 0 0 0 - - - 12;
#X obj 501 854 s \$0-potgain_pos;
#X obj 674 854 s \$0-pottone_pos;
#X obj 460 461 r \$0-finished_play;
#X obj 460 487 delay 1000;
#X obj 521 735 r \$0-bigreset;
#X obj 699 757 r \$0-bigreset;
#X obj 539 1020 r \$0-bigreset;
#X floatatom 539 1046 5 0 0 0 - - - 12;
#X floatatom 638 1190 5 0 0 0 - - - 12;
#X obj 638 1105 pak 0 0 0;
#X obj 460 583 spigot;
#X obj 638 1135 expr if($f1 == $f3 && $f2 ==$f3\\\, 0\\\,1);
#X obj 638 1215 s \$0-allow_increment;
#X obj 495 546 r \$0-allow_increment;
#X obj 556 1135 r \$0-bigreset;
#X msg 556 1161 1;
#X obj 588 461 r \$0-start;
#X floatatom 628 619 5 0 0 0 - - - 12;
#N canvas 0 50 450 300 gaintone 0;
#X obj 525 399 inlet;
#X obj 704 399 inlet;
#X obj 779 399 inlet;
#X obj 704 671 outlet;
#X obj 779 671 outlet;
#X obj 704 531 moses;
#X floatatom 522 478 5 0 0 0 - - - 12;
#X obj 581 453 expr 1 - $f1;
#X floatatom 581 479 5 0 0 0 - - - 12;
#X obj 779 531 moses;
#X connect 0 0 6 0;
#X connect 0 0 7 0;
#X connect 1 0 5 0;
#X connect 2 0 9 0;
#X connect 5 0 3 0;
#X connect 5 1 4 0;
#X connect 6 0 5 1;
#X connect 7 0 8 0;
#X connect 8 0 9 1;
#X connect 9 0 3 0;
#X connect 9 1 4 0;
#X restore 459 995 pd gaintone diverter;
#X f 32;
#X text 575 969 Gain;
#X text 686 969 Tone;
#X text 686 1018 Top;
#X text 467 1018 Right;
#X obj 459 971 r \$0-gainradio, f 13;
#X obj 634 924 hsl 128 17 0 1 0 0 empty empty empty -2 -8 0 10 #ffffff #000000 #000000 0 1;
#X obj 465 924 hsl 128 17 0 1 0 0 empty empty empty -2 -8 0 10 #ffffff #000000 #000000 0 1;
#X msg 459 1076 right_pos \$1;
#X msg 602 1076 top_pos \$1;
#X obj 806 677 s \$0-bigreset;
#X obj 793 626 bng 25 250 50 0 empty empty empty 17 7 0 10 #ffffff #000000 #000000;
#X obj 312 599 loadmess 2;
#X obj 608 576 loadmess 6;
#N canvas 0 50 450 300 ADVANCER 0;
#X obj 353 256 inlet;
#X floatatom 353 288 5 0 0 0 - - - 12;
#X obj 292 508 gate;
#X obj 353 339 bng 25 250 50 0 empty empty empty 17 7 0 10 #ffffff #000000 #000000;
#X obj 411 539 bng 25 250 50 0 empty empty empty 17 7 0 10 #ffffff #000000 #000000;
#X obj 353 313 sel 5 0;
#X obj 353 372 delay 10;
#X obj 353 473 tgl 25 0 empty empty empty 17 7 0 10 #ffffff #000000 #000000 0 1;
#X msg 353 432 1;
#X msg 394 432 0;
#X obj 394 404 delay 10;
#X obj 292 256 inlet;
#X obj 262 740 outlet;
#X obj 292 555 delay 10;
#X obj 292 656 tgl 25 0 empty empty empty 17 7 0 10 #ffffff #000000 #000000 0 1;
#X msg 292 615 1;
#X msg 333 615 0;
#X obj 333 587 delay 10;
#X obj 262 698 gate;
#X obj 333 734 bng 25 250 50 0 empty empty empty 17 7 0 10 #ffffff #000000 #000000;
#X connect 0 0 1 0;
#X connect 1 0 5 0;
#X connect 2 0 4 0;
#X connect 2 0 13 0;
#X connect 3 0 6 0;
#X connect 5 0 3 0;
#X connect 5 1 3 0;
#X connect 5 2 10 0;
#X connect 6 0 8 0;
#X connect 7 0 2 1;
#X connect 8 0 7 0;
#X connect 9 0 7 0;
#X connect 10 0 9 0;
#X connect 11 0 2 0;
#X connect 11 0 18 0 32.................Z....L9+++uF....i++++eZ....;
#X connect 13 0 15 0;
#X connect 14 0 18 1;
#X connect 15 0 14 0;
#X connect 16 0 14 0;
#X connect 17 0 16 0;
#X connect 18 0 12 0;
#X connect 18 0 19 0;
#X restore 516 791 pd ADVANCER;
#X floatatom 1018 857 5 0 0 0 - - - 12;
#X obj 957 1077 gate;
#X obj 1018 908 bng 25 250 50 0 empty empty empty 17 7 0 10 #ffffff #000000 #000000;
#X obj 1076 1108 bng 25 250 50 0 empty empty empty 17 7 0 10 #ffffff #000000 #000000;
#X obj 1018 882 sel 5 0;
#X obj 1018 941 delay 10;
#X obj 1018 1042 tgl 25 0 empty empty empty 17 7 0 10 #ffffff #000000 #000000 0 1;
#X msg 1018 1001 1;
#X msg 1059 1001 0;
#X obj 1059 973 delay 10;
#X obj 476 695 gate;
#X connect 0 0 7 0;
#X connect 0 0 11 0;
#X connect 0 0 20 0;
#X connect 0 0 44 0;
#X connect 1 0 21 0;
#X connect 1 0 45 0;
#X connect 2 0 0 0;
#X connect 3 0 4 0;
#X connect 4 0 8 0;
#X connect 4 0 12 0;
#X connect 4 0 20 1;
#X connect 5 0 2 4;
#X connect 5 0 3 4;
#X connect 5 0 8 1;
#X connect 5 0 7 1;
#X connect 5 0 20 2;
#X connect 6 0 5 0;
#X connect 7 0 10 0;
#X connect 8 0 9 0;
#X connect 9 0 35 0;
#X connect 10 0 36 0;
#X connect 13 0 14 0;
#X connect 14 0 1 0;
#X connect 15 0 2 2;
#X connect 16 0 3 2;
#X connect 17 0 18 0;
#X connect 18 0 38 0;
#X connect 18 0 37 0;
#X connect 19 0 23 0;
#X connect 20 0 22 0;
#X connect 21 0 54 0;
#X connect 22 0 19 0;
#X connect 24 0 21 1;
#X connect 25 0 26 0;
#X connect 26 0 19 0;
#X connect 27 0 14 0;
#X connect 28 0 6 0;
#X connect 29 0 37 0;
#X connect 29 1 38 0;
#X connect 34 0 29 0;
#X connect 35 0 29 2;
#X connect 36 0 29 1;
#X connect 40 0 39 0;
#X connect 41 0 2 1;
#X connect 42 0 28 0;
#X connect 44 0 48 0;
#X connect 45 0 47 0;
#X connect 45 0 3 0;
#X connect 46 0 49 0;
#X connect 48 0 46 0;
#X connect 48 1 46 0;
#X connect 48 2 53 0;
#X connect 49 0 51 0;
#X connect 50 0 45 1;
#X connect 50 0 54 1;
#X connect 51 0 50 0;
#X connect 52 0 50 0;
#X connect 53 0 52 0;
#X connect 54 0 2 0;
