#N canvas 1 89 1355 990 12;
#X msg 45 417 1;
#X msg 119 417 -1;
#X obj 44 560 +;
#X obj 82 561 i;
#X floatatom 102 671 5 0 0 0 - - - 0;
#X msg 193 479 0;
#X obj 102 615 expr $i1 *($i1>0);
#X msg 267 592 \$1;
#X text 309 590 To get rid of symbol;
#X obj 251 366 bng 15 250 50 0 empty empty empty 17 7 0 10 #fcfcfc #000000 #000000;
#X obj 312 418 pack s s;
#X msg 312 443 read \$1;
#X obj 341 354 bng 15 250 50 0 empty empty empty 17 7 0 10 #fcfcfc #000000 #000000;
#X obj 489 574 pack s s;
#X msg 536 599 \$2;
#X obj 489 354 bng 15 250 50 0 empty empty empty 17 7 0 10 #fcfcfc #000000 #000000;
#X msg 542 444 symbol \$1;
#X obj 415 391 pack s s;
#X obj 45 246 inlet;
#X obj 109 757 outlet, f 10;
#X obj 263 731 outlet;
#X obj 267 474 pbank boasdf 21 64;
#X obj 203 449 loadbang;
#X msg 598 600 \$1;
#X obj 267 555 symbol;
#X obj 267 528 unpack s;
#X msg 528 263 nextName;
#X msg 600 263 prevName;
#X msg 675 263 resetName;
#X msg 272 262 read data/filenames.csv;
#X msg 754 264 customname ciao.wav;
#X msg 903 265 SELECT;
#X obj 45 354 bng 15 250 50 0 empty empty empty 17 7 0 10 #fcfcfc #000000 #000000;
#X obj 119 355 bng 15 250 50 0 empty empty empty 17 7 0 10 #fcfcfc #000000 #000000;
#X text 501 227 These are here just to test;
#X msg 965 265 SELECT_AND_NEXT;
#X obj 563 354 bng 15 250 50 0 empty empty empty 17 7 0 10 #fcfcfc #000000 #000000;
#X obj 193 358 bng 15 250 50 0 empty empty empty 17 7 0 10 #fcfcfc #000000 #000000;
#X msg 341 373 0;
#X obj 45 330 route nextName prevName resetName read preselect customname SELECT SELECT_AND_NEXT, f 85;
#X msg 450 263 preselect;
#X obj 102 643 * 1;
#X msg 542 987 0;
#X msg 567 987 1;
#X msg 593 987 2;
#X msg 618 987 3;
#X msg 643 987 4;
#X msg 672 987 5;
#X msg 967 952 0;
#X msg 992 952 1;
#X msg 1018 952 2;
#X msg 1043 952 3;
#X msg 1072 952 4;
#X msg 1097 952 5;
#X floatatom 632 1034 6 0 0 0 - - - 12;
#X floatatom 937 1034 5 0 0 0 - - - 12;
#X obj 545 769 bng 25 250 50 0 empty empty empty 17 7 0 10 #ffffff #000000 #000000;
#X floatatom 545 842 5 0 0 0 - - - 12;
#X obj 545 816 counter 36;
#X obj 588 1104 hsl 128 17 0 5 0 0 empty empty empty -2 -8 0 10 #ffffff #000000 #000000 0 1;
#X obj 738 1104 hsl 128 17 0 5 0 0 empty empty empty -2 -8 0 10 #ffffff #000000 #000000 0 1;
#X obj 542 874 sel 0 1 2 3 4 5 6 7 8 9 10 11 12 13 14 15 16 17 18 19 20 21 22 23 24 25 26 27 28 29 30 31 32 33 34 35, f 124;
#X obj 583 769 bng 25 250 50 0 empty empty empty 17 7 0 10 #ffffff #000000 #000000;
#X obj 848 987 / 6;
#X obj 848 1017 floor;
#X obj 1399 907 bng 25 250 50 0 empty empty empty 17 7 0 10 #ffffff #000000 #000000;
#N canvas 0 50 450 300 66counter 1;
#X obj 605 362 inlet;
#X obj 657 362 inlet;
#X msg 602 562 0;
#X msg 627 562 1;
#X msg 653 562 2;
#X msg 678 562 3;
#X msg 703 562 4;
#X msg 732 562 5;
#X msg 1027 527 0;
#X msg 1052 527 1;
#X msg 1078 527 2;
#X msg 1103 527 3;
#X msg 1132 527 4;
#X msg 1157 527 5;
#X floatatom 692 609 6 0 0 0 - - - 12;
#X floatatom 997 609 5 0 0 0 - - - 12;
#X floatatom 605 417 5 0 0 0 - - - 12;
#X obj 605 391 counter 36, f 16;
#X obj 602 449 sel 0 1 2 3 4 5 6 7 8 9 10 11 12 13 14 15 16 17 18 19 20 21 22 23 24 25 26 27 28 29 30 31 32 33 34 35, f 124;
#X obj 908 562 / 6;
#X obj 908 592 floor;
#X obj 1459 482 bng 25 250 50 0 empty empty empty 17 7 0 10 #ffffff #000000 #000000;
#X obj 831 696 outlet;
#X obj 973 696 outlet;
#X obj 1121 696 outlet;
#X connect 0 0 17 0;
#X connect 1 0 17 2;
#X connect 2 0 14 0;
#X connect 3 0 14 0;
#X connect 4 0 14 0;
#X connect 5 0 14 0;
#X connect 6 0 14 0;
#X connect 7 0 14 0;
#X connect 14 0 22 0;
#X connect 15 0 23 0;
#X connect 16 0 18 0;
#X connect 16 0 19 0;
#X connect 17 0 16 0;
#X connect 18 0 2 0;
#X connect 18 0 8 0;
#X connect 18 1 3 0;
#X connect 18 1 8 0;
#X connect 18 2 4 0;
#X connect 18 2 8 0;
#X connect 18 3 5 0;
#X connect 18 3 8 0;
#X connect 18 4 6 0;
#X connect 18 4 8 0;
#X connect 18 5 7 0;
#X connect 18 5 8 0;
#X connect 18 6 7 0;
#X connect 18 6 9 0;
#X connect 18 7 6 0;
#X connect 18 8 5 0;
#X connect 18 9 4 0;
#X connect 18 10 3 0;
#X connect 18 11 2 0;
#X connect 18 12 2 0;
#X connect 18 13 3 0;
#X connect 18 14 4 0;
#X connect 18 15 5 0;
#X connect 18 16 6 0;
#X connect 18 17 7 0;
#X connect 18 18 7 0;
#X connect 18 19 6 0;
#X connect 18 20 5 0;
#X connect 18 21 4 0;
#X connect 18 22 3 0;
#X connect 18 23 2 0;
#X connect 18 24 2 0;
#X connect 18 25 3 0;
#X connect 18 26 4 0;
#X connect 18 27 5 0;
#X connect 18 28 6 0;
#X connect 18 29 7 0;
#X connect 18 30 7 0;
#X connect 18 31 6 0;
#X connect 18 32 5 0;
#X connect 18 33 4 0;
#X connect 18 34 3 0;
#X connect 18 35 2 0;
#X connect 18 36 21 0;
#X connect 18 36 24 0;
#X connect 19 0 20 0;
#X connect 20 0 15 0;
#X restore 902 769 pd 66counter;
#X f 16;
#X floatatom 902 793 5 0 0 0 - - - 12;
#X floatatom 951 793 5 0 0 0 - - - 12;
#X obj 902 725 bng 25 250 50 0 empty empty empty 17 7 0 10 #ffffff #000000 #000000;
#X obj 980 725 bng 25 250 50 0 empty empty empty 17 7 0 10 #ffffff #000000 #000000;
#X obj 1002 803 bng 25 250 50 0 empty empty empty 17 7 0 10 #ffffff #000000 #000000;
#X connect 0 0 2 0;
#X connect 1 0 2 0;
#X connect 2 0 3 0;
#X connect 3 0 6 0;
#X connect 4 0 21 0;
#X connect 5 0 2 1;
#X connect 5 0 2 0;
#X connect 6 0 41 0;
#X connect 7 0 20 0;
#X connect 10 0 11 0;
#X connect 11 0 21 0;
#X connect 12 0 38 0;
#X connect 13 0 14 0;
#X connect 14 0 19 0;
#X connect 15 0 13 0;
#X connect 16 0 13 1;
#X connect 16 0 23 0;
#X connect 17 0 16 0;
#X connect 18 0 39 0;
#X connect 21 0 25 0;
#X connect 22 0 5 0;
#X connect 23 0 20 0;
#X connect 24 0 7 0;
#X connect 24 0 13 1;
#X connect 25 0 24 0;
#X connect 26 0 39 0;
#X connect 27 0 39 0;
#X connect 28 0 39 0;
#X connect 29 0 39 0;
#X connect 30 0 39 0;
#X connect 31 0 39 0;
#X connect 32 0 0 0;
#X connect 33 0 1 0;
#X connect 35 0 39 0;
#X connect 36 0 13 0;
#X connect 36 0 0 0;
#X connect 37 0 5 0;
#X connect 38 0 2 0;
#X connect 39 0 32 0;
#X connect 39 1 33 0;
#X connect 39 2 37 0;
#X connect 39 3 9 0;
#X connect 39 3 10 0;
#X connect 39 3 21 0;
#X connect 39 4 12 0;
#X connect 39 5 17 0;
#X connect 39 6 15 0;
#X connect 39 7 36 0;
#X connect 40 0 39 0;
#X connect 41 0 4 0;
#X connect 41 0 2 1;
#X connect 42 0 54 0;
#X connect 43 0 54 0;
#X connect 44 0 54 0;
#X connect 45 0 54 0;
#X connect 46 0 54 0;
#X connect 47 0 54 0;
#X connect 54 0 59 0;
#X connect 55 0 60 0;
#X connect 56 0 58 0;
#X connect 57 0 61 0;
#X connect 57 0 63 0;
#X connect 58 0 57 0;
#X connect 61 0 42 0;
#X connect 61 0 48 0;
#X connect 61 1 43 0;
#X connect 61 1 48 0;
#X connect 61 2 44 0;
#X connect 61 2 48 0;
#X connect 61 3 45 0;
#X connect 61 3 48 0;
#X connect 61 4 46 0;
#X connect 61 4 48 0;
#X connect 61 5 47 0;
#X connect 61 5 48 0;
#X connect 61 6 47 0;
#X connect 61 6 49 0;
#X connect 61 7 46 0;
#X connect 61 8 45 0;
#X connect 61 9 44 0;
#X connect 61 10 43 0;
#X connect 61 11 42 0;
#X connect 61 12 42 0;
#X connect 61 13 43 0;
#X connect 61 14 44 0;
#X connect 61 15 45 0;
#X connect 61 16 46 0;
#X connect 61 17 47 0;
#X connect 61 18 47 0;
#X connect 61 19 46 0;
#X connect 61 20 45 0;
#X connect 61 21 44 0;
#X connect 61 22 43 0;
#X connect 61 23 42 0;
#X connect 61 24 42 0;
#X connect 61 25 43 0;
#X connect 61 26 44 0;
#X connect 61 27 45 0;
#X connect 61 28 46 0;
#X connect 61 29 47 0;
#X connect 61 30 47 0;
#X connect 61 31 46 0;
#X connect 61 32 45 0;
#X connect 61 33 44 0;
#X connect 61 34 43 0;
#X connect 61 35 42 0;
#X connect 61 36 65 0;
#X connect 62 0 58 2;
#X connect 63 0 64 0;
#X connect 64 0 55 0;
#X connect 66 0 67 0;
#X connect 66 1 68 0;
#X connect 66 2 71 0;
#X connect 69 0 66 0;
#X connect 70 0 66 1;
