#N canvas 827 239 527 327 12;
#X obj -64 -239 cnv 15 1514 244 empty empty empty 20 12 0 14 #d4ced1 #000000 0;
#X obj 813 -239 cnv 15 637 210 empty empty empty 20 12 0 14 #837f81 #f9f3ec 0;
#X obj -64 17 cnv 15 221 829 empty empty Serial\ Arduino\ Communication 20 12 0 14 #88d1c9 #000000 0;
#X msg 65 45 close, f 7;
#X msg -40 45 devices;
#X obj -8 280 r \$0-to_arduino, f 14;
#X obj 674 17 cnv 15 334 829 empty empty DB\ Input\ Player 20 12 0 14 #ffaecd #000000 0;
#X obj 678 58 loadbang;
#X obj 813 496 bng 40 250 50 0 empty empty empty 17 7 0 10 #fcfcfc #000000 #000000;
#X msg 785 431 start;
#X msg 691 463 stop;
#X obj 760 361 cyclone/sprintf open %s;
#X obj 760 463 readsf~ 1;
#X obj 1029 17 cnv 15 421 829 empty empty Pedal\ Out\ Recorder 20 12 0 14 #ffce50 #000000 0;
#X obj 1040 485 adc~ 1;
#X msg 1091 452 start;
#X msg 1148 496 stop;
#X obj 1064 303 cyclone/sprintf open -bytes 3 %s;
#X obj -50 -100 s \$0-pedalname;
#X text 860 494 finished playing;
#X obj 813 543 s \$0-finished_play;
#X obj 825 58 r \$0-finished_play;
#X obj 1091 371 t b;
#X obj 1148 452 r \$0-finished_play;
#X obj 1091 536 writesf~ 1, f 15;
#X text 834 -170 Delay Motor Movement;
#X obj 1064 205 pack s 0 0, f 32;
#X obj 1064 58 r \$0-potgain_pos;
#X obj 1278 58 r \$0-pottone_pos;
#X obj 1104 112 r \$0-pedalname;
#X text 1245 341 Delay Motor Movement;
#X obj 1142 343 r \$0-mmdelay;
#X obj 1064 84 t b f;
#X obj 1064 170 symbol;
#X obj 1104 141 sprintf symbol %s;
#X obj 1064 135 bng 25 250 50 0 empty empty empty 17 7 0 10 #ffffff #000000 #000000;
#X obj 1078 274 print recording;
#X obj 430 -86 bng 51 250 50 0 empty empty empty 17 7 0 10 #ffa07e #000000 #000000;
#X obj 430 -27 s \$0-bigreset;
#X obj 691 431 r \$0-bigreset;
#X obj 1277 452 r \$0-bigreset;
#X obj 749 58 r \$0-bigreset;
#X obj 785 396 bng 25 250 50 0 empty empty empty 17 7 0 10 #ffffff #000000 #000000;
#X obj 749 93 delay 10;
#X obj 820 760 rms~;
#X obj 1040 585 rms~;
#X obj 820 788 s \$0-play_rms;
#X obj 1040 613 s \$0-rec_rms;
#X obj 602 -158 vu 20 120 empty empty -1 -8 0 10 #ffffff #000000 1 0;
#X obj 684 -158 vu 20 120 empty empty -1 -8 0 10 #ffffff #000000 1 0;
#X obj 680 -213 r \$0-rec_rms;
#X obj 598 -213 r \$0-play_rms;
#X obj 437 -199 bng 51 250 50 0 empty empty empty 17 7 0 10 #307497 #000000 #000000;
#X obj 437 -140 s \$0-start;
#X text -10 -162 Rename pedal and BANG;
#X obj -50 -160 bng 25 250 50 0 empty empty empty 17 7 0 10 #ffffff #000000 #000000;
#X obj 172 17 cnv 15 484 829 empty empty Filename\ &\ Counter 20 12 0 14 #ff673f #000000 0;
#X obj 202 696 _format_serial_messages;
#X obj 203 817 s \$0-to_arduino;
#X floatatom 203 405 5 0 0 0 - - - 16;
#X obj 203 126 bng 25 250 50 0 empty empty empty 17 7 0 10 #ffffff #000000 #000000;
#X floatatom 478 405 5 0 0 0 - - - 16;
#X obj 203 445 / 5;
#X obj 478 445 / 5;
#X floatatom 478 485 5 0 0 0 - - - 12;
#X floatatom 202 485 5 0 0 0 - - - 12;
#X obj 244 445 s \$0-potgain_pos;
#X obj 524 445 s \$0-pottone_pos;
#X obj 203 52 r \$0-finished_play;
#X obj 203 78 delay 1000;
#X obj 460 126 r \$0-bigreset;
#X obj 282 611 r \$0-bigreset;
#X floatatom 282 637 5 0 0 0 - - - 12;
#X obj 203 174 spigot;
#X obj 451 332 s \$0-allow_increment;
#X obj 238 137 r \$0-allow_increment;
#X obj 312 52 r \$0-start;
#X text -40 -235 Robotic Guitar Pedal Recorder;
#X text 430 -114 Emergency Stop&Reset;
#X text 437 -227 Start;
#X obj 1195 -76 s \$0-recSteps;
#X msg 1195 -105 6, f 21;
#X obj 1195 -130 loadbang;
#X obj 1273 -130 r \$0-bigreset;
#X text 1195 -170 Pot Steps including 0;
#X obj 834 -92 s \$0-mmdelay;
#N canvas 0 50 450 300 mysel2 0;
#X obj 434 151 inlet;
#X obj 576 151 inlet;
#X obj 434 177 bng 25 250 50 0 empty empty empty 17 7 0 10 #ffffff #000000 #000000;
#X obj 576 208 vradio 20 1 0 2 empty empty empty 0 -8 0 10 #ffffff #000000 #000000 0;
#X floatatom 576 284 2 0 0 0 - - - 16;
#X obj 539 312 moses;
#X obj 539 347 bng 25 250 50 0 empty empty empty 17 7 0 10 #ffffff #000000 #000000;
#X msg 539 284 0;
#X obj 434 312 moses;
#X msg 434 284 1;
#X obj 471 347 bng 25 250 50 0 empty empty empty 17 7 0 10 #ffffff #000000 #000000;
#X obj 471 284 + 1;
#X obj 539 405 outlet;
#X obj 471 405 outlet;
#X connect 0 0 2 0;
#X connect 1 0 3 0;
#X connect 2 0 7 0;
#X connect 2 0 9 0;
#X connect 3 0 4 0;
#X connect 4 0 5 1;
#X connect 4 0 11 0;
#X connect 5 0 6 0;
#X connect 6 0 12 0;
#X connect 7 0 5 0;
#X connect 8 1 10 0;
#X connect 9 0 8 0;
#X connect 10 0 13 0;
#X connect 11 0 8 1;
#X restore 760 210 pd mysel2;
#X obj 844 105 vradio 20 1 1 2 empty empty empty 0 -8 0 10 #ffffff #000000 #000000 1;
#X obj 819 237 bng 25 250 50 0 empty empty empty 17 7 0 10 #ffffff #000000 #000000;
#X obj 760 237 bng 25 250 50 0 empty empty empty 17 7 0 10 #ffffff #000000 #000000;
#X msg 819 273 ./db_input_short.wav;
#X text 872 121 ./db_input_short.wav;
#X text 872 100 ./db_input.wav;
#X msg 760 299 ./db_input.wav;
#X obj 678 93 bng 19 250 50 0 empty empty empty 17 7 0 10 #ffffff #000000 #000000;
#X obj 773 170 r \$0-start;
#X obj 1365 -130 vradio 20 1 1 2 arduino empty empty 0 -8 0 10 #ffffff #000000 #000000 1;
#X text 1393 -135 OFF;
#X text 1393 -114 ON;
#X text 1365 -170 Arduino;
#X msg 37 72 open 1, f 7;
#X msg 37 99 open 2, f 7;
#X msg 37 124 open 3, f 7;
#X msg 37 151 open 4, f 8;
#X msg -40 422 all_pots_to_min 1;
#X msg -40 455 all_pots_to_max 1;
#X msg 97 72 open 5, f 7;
#X msg 97 99 open 6, f 7;
#X msg 97 124 open 7, f 7;
#X msg 97 151 open 8, f 7;
#X obj -40 304 comport 6 115200, f 19;
#X obj -8 224 loadbang;
#X msg -8 249 verbose 1;
#X obj 203 -180 vradio 30 1 1 2 \$0-gainradio empty empty -26 -10 0 12 #ffffff #000000 #000000 1;
#X text 234 -176 Top;
#X text 234 -150 Right;
#N canvas 0 50 450 300 gaintone 0;
#X obj 525 399 inlet;
#X obj 704 399 inlet;
#X obj 779 399 inlet;
#X obj 704 671 outlet;
#X obj 779 671 outlet;
#X obj 704 531 moses;
#X floatatom 522 478 5 0 0 0 - - - 12;
#X obj 581 453 expr 1 - $f1;
#X floatatom 581 479 5 0 0 0 - - - 12;
#X obj 779 531 moses;
#X connect 0 0 6 0;
#X connect 0 0 7 0;
#X connect 1 0 5 0;
#X connect 2 0 9 0;
#X connect 5 0 3 0;
#X connect 5 1 4 0;
#X connect 6 0 5 1;
#X connect 7 0 8 0;
#X connect 8 0 9 1;
#X connect 9 0 3 0;
#X connect 9 1 4 0;
#X restore 202 586 pd gaintone diverter;
#X f 32;
#X text 318 559 Gain;
#X text 429 559 Tone;
#X text 429 608 Top;
#X text 210 608 Right;
#X obj 202 562 r \$0-gainradio, f 13;
#X obj 487 515 hsl 128 17 0 1 0 0 empty empty empty -2 -8 0 10 #ffffff #000000 #000000 0 1;
#X obj 211 515 hsl 128 17 0 1 0 0 empty empty empty -2 -8 0 10 #ffffff #000000 #000000 0 1;
#X msg 202 667 right_pos \$1;
#X msg 345 667 top_pos \$1;
#N canvas 0 50 450 300 soundcheck 0;
#X obj 669 432 tgl 25 0 empty empty empty 17 7 0 10 #ffffff #000000 #000000 0 1;
#X obj 767 477 change;
#X obj 767 503 bng 25 250 50 0 empty empty empty 17 7 0 10 #ffffff #000000 #000000;
#X msg 792 719 start;
#X obj 767 579 cyclone/sprintf open %s;
#X obj 767 744 readsf~ 1;
#X obj 792 655 bng 25 250 50 0 empty empty empty 17 7 0 10 #ffffff #000000 #000000;
#X msg 767 550 ./soundcheck.wav;
#X obj 831 655 bng 25 250 50 0 empty empty empty 17 7 0 10 #ffffff #000000 #000000;
#X obj 805 692 delay 10;
#X obj 669 381 inlet;
#X obj 838 807 outlet~;
#X connect 0 0 1 0;
#X connect 0 0 5 0;
#X connect 1 0 2 0;
#X connect 2 0 7 0;
#X connect 2 0 6 0;
#X connect 3 0 5 0;
#X connect 4 0 5 0;
#X connect 5 0 11 0;
#X connect 5 1 8 0;
#X connect 6 0 3 0;
#X connect 7 0 4 0;
#X connect 8 0 7 0;
#X connect 8 0 9 0;
#X connect 9 0 3 0;
#X connect 10 0 0 0;
#X restore 820 621 pd soundcheck;
#X obj 820 586 tgl 25 0 empty \$0-testVolume empty 17 7 0 10 #ffffff #000000 #000000 0 1;
#X obj 760 726 *~ 1;
#X obj 760 787 dac~ 1;
#X floatatom 619 -189 5 0 0 0 - - - 12;
#X floatatom 699 -189 5 0 0 0 - - - 12;
#X text 190 -222 Gain Stepper \; Position, f 12;
#X obj 177 -76 cnv 15 100 60 empty empty empty 20 12 0 14 #ff5c5f #000000 0;
#X obj 214 -50 tgl 25 0 \$0-testVolume empty empty 17 7 0 10 #ffffff #000000 #000000 0 1;
#X text 186 -78 Soundcheck;
#X msg -50 -126 zendrive, f 28;
#X obj 1091 399 del 5000;
#N canvas 0 50 450 300 66counter 0;
#X obj 605 362 inlet;
#X obj 657 362 inlet;
#X msg 602 562 0;
#X msg 627 562 1;
#X msg 653 562 2;
#X msg 678 562 3;
#X msg 703 562 4;
#X msg 732 562 5;
#X msg 1027 527 0;
#X msg 1052 527 1;
#X msg 1078 527 2;
#X msg 1103 527 3;
#X msg 1132 527 4;
#X msg 1157 527 5;
#X floatatom 692 609 6 0 0 0 - - - 12;
#X floatatom 997 609 5 0 0 0 - - - 12;
#X floatatom 605 417 5 0 0 0 - - - 12;
#X obj 605 391 counter 36, f 16;
#X obj 602 449 sel 0 1 2 3 4 5 6 7 8 9 10 11 12 13 14 15 16 17 18 19 20 21 22 23 24 25 26 27 28 29 30 31 32 33 34 35, f 124;
#X obj 908 562 / 6;
#X obj 908 592 floor;
#X obj 1459 482 bng 25 250 50 0 empty empty empty 17 7 0 10 #ffffff #000000 #000000;
#X obj 831 696 outlet;
#X obj 973 696 outlet;
#X obj 1121 696 outlet;
#X obj 564 306 bng 25 250 50 0 empty empty empty 17 7 0 10 #ffffff #000000 #000000;
#X obj 678 306 bng 25 250 50 0 empty empty empty 17 7 0 10 #ffffff #000000 #000000;
#X connect 0 0 17 0;
#X connect 1 0 17 2;
#X connect 2 0 14 0;
#X connect 3 0 14 0;
#X connect 4 0 14 0;
#X connect 5 0 14 0;
#X connect 6 0 14 0;
#X connect 7 0 14 0;
#X connect 14 0 22 0;
#X connect 15 0 23 0;
#X connect 16 0 18 0;
#X connect 16 0 19 0;
#X connect 17 0 16 0;
#X connect 18 0 2 0;
#X connect 18 0 8 0;
#X connect 18 1 3 0;
#X connect 18 1 8 0;
#X connect 18 2 4 0;
#X connect 18 2 8 0;
#X connect 18 3 5 0;
#X connect 18 3 8 0;
#X connect 18 4 6 0;
#X connect 18 4 8 0;
#X connect 18 5 7 0;
#X connect 18 5 8 0;
#X connect 18 6 7 0;
#X connect 18 6 9 0;
#X connect 18 7 6 0;
#X connect 18 8 5 0;
#X connect 18 9 4 0;
#X connect 18 10 3 0;
#X connect 18 11 2 0;
#X connect 18 12 2 0;
#X connect 18 13 3 0;
#X connect 18 14 4 0;
#X connect 18 15 5 0;
#X connect 18 16 6 0;
#X connect 18 17 7 0;
#X connect 18 18 7 0;
#X connect 18 19 6 0;
#X connect 18 20 5 0;
#X connect 18 21 4 0;
#X connect 18 22 3 0;
#X connect 18 23 2 0;
#X connect 18 24 2 0;
#X connect 18 25 3 0;
#X connect 18 26 4 0;
#X connect 18 27 5 0;
#X connect 18 28 6 0;
#X connect 18 29 7 0;
#X connect 18 30 7 0;
#X connect 18 31 6 0;
#X connect 18 32 5 0;
#X connect 18 33 4 0;
#X connect 18 34 3 0;
#X connect 18 35 2 0;
#X connect 18 36 21 0;
#X connect 18 36 24 0;
#X connect 19 0 20 0;
#X connect 20 0 15 0;
#X connect 25 0 17 0;
#X connect 26 0 17 2;
#X restore 203 254 pd 66counter;
#X f 16;
#X obj 203 210 bng 25 250 50 0 empty empty empty 17 7 0 10 #ffffff #000000 #000000;
#X obj 302 218 bng 25 250 50 0 empty empty empty 17 7 0 10 #ffffff #000000 #000000;
#X obj 523 204 bng 25 250 50 0 empty empty empty 17 7 0 10 #ffffff #000000 #000000;
#X obj 1064 245 cyclone/sprintf ./out/%s_g%s_t%s.wav;
#X floatatom 1142 371 5 0 0 0 - - - 12;
#X obj 451 297 tgl 25 0 empty empty empty 17 7 0 10 #ffffff #000000 #000000 0 1;
#X msg 451 266 1;
#X msg 478 266 0;
#X obj 834 -142 loadmess 10000;
#X connect 3 0 110 0;
#X connect 4 0 110 0;
#X connect 5 0 110 0;
#X connect 7 0 94 0;
#X connect 8 0 20 0;
#X connect 9 0 12 0;
#X connect 10 0 12 0;
#X connect 11 0 12 0;
#X connect 12 0 128 0;
#X connect 12 1 8 0;
#X connect 14 0 24 0;
#X connect 14 0 45 0;
#X connect 15 0 24 0;
#X connect 16 0 24 0;
#X connect 17 0 22 0;
#X connect 17 0 24 0;
#X connect 21 0 86 0 32.................CA...n5++++P....p9+++WH....;
#X connect 22 0 137 0;
#X connect 23 0 16 0;
#X connect 26 0 142 0;
#X connect 27 0 32 0;
#X connect 28 0 26 2;
#X connect 29 0 34 0;
#X connect 31 0 143 0;
#X connect 32 0 35 0;
#X connect 32 1 26 1;
#X connect 33 0 26 0;
#X connect 34 0 33 1;
#X connect 35 0 33 0;
#X connect 37 0 38 0;
#X connect 39 0 10 0;
#X connect 40 0 16 0;
#X connect 41 0 43 0 32.................H..........B..........A....;
#X connect 42 0 9 0;
#X connect 43 0 86 0 32.................f....r.....H....K....HF....;
#X connect 44 0 46 0;
#X connect 45 0 47 0;
#X connect 50 0 49 0;
#X connect 50 0 131 0;
#X connect 51 0 48 0;
#X connect 51 0 130 0;
#X connect 52 0 53 0;
#X connect 55 0 136 0;
#X connect 57 0 58 0;
#X connect 59 0 62 0;
#X connect 59 0 66 0;
#X connect 60 0 73 0;
#X connect 61 0 63 0;
#X connect 61 0 67 0;
#X connect 62 0 65 0;
#X connect 63 0 64 0;
#X connect 64 0 122 0;
#X connect 65 0 123 0;
#X connect 68 0 69 0;
#X connect 69 0 60 0;
#X connect 70 0 140 0;
#X connect 70 0 145 0;
#X connect 71 0 72 0;
#X connect 72 0 125 0;
#X connect 72 0 124 0;
#X connect 73 0 139 0;
#X connect 75 0 73 1;
#X connect 76 0 69 0;
#X connect 76 0 145 0;
#X connect 81 0 80 0;
#X connect 82 0 81 0;
#X connect 83 0 81 0;
#X connect 86 0 89 0;
#X connect 86 1 88 0;
#X connect 87 0 86 1;
#X connect 88 0 90 0;
#X connect 89 0 93 0;
#X connect 90 0 11 0;
#X connect 93 0 11 0;
#X connect 94 0 86 0 32.................f....rD....H....KA...HF....;
#X connect 95 0 86 0;
#X connect 100 0 110 0;
#X connect 101 0 110 0;
#X connect 102 0 110 0;
#X connect 103 0 110 0;
#X connect 104 0 57 0 48.................HD...nL....BA...JC...rO...f7....6C...HO...v+....;
#X connect 105 0 57 0 48.................pC...nL...f5....JC...XM...f7....VC...HO...f2....;
#X connect 106 0 110 0;
#X connect 107 0 110 0;
#X connect 108 0 110 0;
#X connect 109 0 110 0;
#X connect 111 0 112 0;
#X connect 112 0 110 0;
#X connect 116 0 124 0;
#X connect 116 1 125 0;
#X connect 121 0 116 0;
#X connect 122 0 116 2;
#X connect 123 0 116 1;
#X connect 124 0 57 0;
#X connect 125 0 57 0;
#X connect 126 0 128 0;
#X connect 127 0 126 0;
#X connect 128 0 129 0;
#X connect 128 0 44 0;
#X connect 136 0 18 0;
#X connect 137 0 15 0;
#X connect 137 0 42 0;
#X connect 138 0 59 0;
#X connect 138 1 61 0;
#X connect 138 2 141 0;
#X connect 139 0 138 0;
#X connect 140 0 138 1;
#X connect 141 0 146 0;
#X connect 142 0 17 0;
#X connect 142 0 36 0;
#X connect 143 0 137 1;
#X connect 144 0 74 0;
#X connect 145 0 144 0;
#X connect 146 0 144 0;
#X connect 147 0 85 0;
