#N canvas 827 239 527 327 12;
#X obj -64 -239 cnv 15 1514 210 empty empty empty 20 12 0 14 #d4ced1 #000000 0;
#X obj 813 -239 cnv 15 637 210 empty empty empty 20 12 0 14 #837f81 #f9f3ec 0;
#X obj -64 -13 cnv 15 221 829 empty empty Serial\ Arduino\ Communication 20 12 0 14 #88d1c9 #000000 0;
#X msg 37 15 close, f 7;
#X msg -40 15 devices;
#X obj -8 189 r to_arduino, f 14;
#X obj -40 213 comport 1 115200, f 19;
#X obj 674 -13 cnv 15 334 829 empty empty DB\ Input\ Player 20 12 0 14 #ffaecd #000000 0;
#X obj 678 28 loadbang;
#X obj 813 466 bng 40 250 50 0 empty empty empty 17 7 0 10 #fcfcfc #000000 #000000;
#X msg 785 401 start;
#X msg 691 433 stop;
#X obj 760 331 cyclone/sprintf open %s;
#X obj 760 433 readsf~ 1;
#X obj 760 619 dac~ 1;
#X obj 1029 -13 cnv 15 421 829 empty empty Pedal\ Out\ Recorder 20 12 0 14 #ffce50 #000000 0;
#X obj 1035 413 adc~ 1;
#X msg 1097 385 start;
#X msg 1151 385 stop;
#X obj 1064 273 cyclone/sprintf open -bytes 3 %s;
#X obj 1064 215 cyclone/sprintf ./out/%s_%s_%s.wav;
#X obj -50 -100 s pedalname;
#X text 860 467 finished playing;
#X obj 813 513 s finished_play;
#X obj 825 28 r finished_play;
#X obj 1097 304 t b;
#X obj 1097 332 del 1000;
#X obj 1151 354 r finished_play;
#X obj 1097 469 writesf~ 1, f 15;
#X obj 1009 -142 loadbang;
#X text 1009 -167 Delay Motor Movement;
#X obj 1064 175 pack s 0 0, f 32;
#X obj 1064 28 r potgain_pos;
#X obj 1278 28 r pottone_pos;
#X obj 1104 82 r pedalname;
#X obj 1008 -92 s mmdelay;
#X text 1228 294 Delay Motor Movement;
#X obj 1145 304 r mmdelay;
#X obj 1064 54 t b f;
#X obj 1064 140 symbol;
#X obj 1104 111 sprintf symbol %s;
#X obj 1064 105 bng 25 250 50 0 empty empty empty 17 7 0 10 #ffffff #000000 #000000;
#X obj 1078 244 print recording;
#X obj 371 -142 bng 51 250 50 0 empty empty empty 17 7 0 10 #ffa07e #000000 #000000;
#X obj 371 -83 s bigreset;
#X obj 691 401 r bigreset;
#X obj 1280 354 r bigreset;
#X obj 749 28 r bigreset;
#X obj 785 366 bng 25 250 50 0 empty empty empty 17 7 0 10 #ffffff #000000 #000000;
#X obj 749 63 delay 10;
#X obj 807 558 rms~;
#X obj 1035 513 rms~;
#X obj 807 586 s play_rms;
#X obj 1035 541 s rec_rms;
#X obj 599 -164 vu 20 120 empty empty -1 -8 0 10 #ffffff #000000 1 0;
#X obj 681 -164 vu 20 120 empty empty -1 -8 0 10 #ffffff #000000 1 0;
#X obj 680 -213 r rec_rms;
#X obj 598 -213 r play_rms;
#X msg -50 -126 2pedalinoFigo2, f 28;
#X obj 225 -142 bng 51 250 50 0 empty empty empty 17 7 0 10 #307497 #000000 #000000;
#X obj 225 -83 s start;
#X text -10 -159 Rename pedal and BANG;
#X obj -50 -160 bng 25 250 50 0 empty empty empty 17 7 0 10 #ffffff #000000 #000000;
#X obj 172 -13 cnv 15 484 829 empty empty Filename\ &\ Counter 20 12 0 14 #ff673f #000000 0;
#X obj 202 666 _format_serial_messages;
#X obj 275 786 s to_arduino;
#X obj 202 556 vsl 16 71 0 1 0 0 empty empty empty 0 -9 0 10 #ffffff #000000 #000000 0 1;
#X floatatom 203 399 5 0 0 0 - - - 16;
#X obj 203 96 bng 25 250 50 0 empty empty empty 17 7 0 10 #ffffff #000000 #000000;
#X obj 203 373 counter 0 5 @carryflag 1;
#X obj 345 399 counter 0 5 @carryflag 1;
#X floatatom 345 425 5 0 0 0 - - - 16;
#X obj 278 411 sel 0;
#X floatatom 371 288 5 0 0 0 - - - 12;
#X obj 371 259 - 1;
#X obj 203 465 / 5;
#X obj 345 556 vsl 16 71 0 1 0 0 empty empty empty 0 -9 0 10 #ffffff #000000 #000000 0 1;
#X obj 345 465 / 5;
#X floatatom 345 505 5 0 0 0 - - - 12;
#X floatatom 202 505 5 0 0 0 - - - 12;
#X msg 202 637 potgain_pos \$1;
#X msg 327 637 pottone_pos \$1;
#X obj 244 465 s potgain_pos;
#X obj 391 465 s pottone_pos;
#X obj 203 22 r finished_play;
#X obj 203 48 delay 1000;
#X obj 264 346 r bigreset;
#X obj 416 368 r bigreset;
#X obj 234 572 r bigreset;
#X floatatom 234 598 5 0 0 0 - - - 12;
#X obj 422 526 sel 5;
#X msg 422 552 1;
#X obj 422 583 == 2;
#X floatatom 381 751 5 0 0 0 - - - 12;
#X obj 381 666 pak 0 0 0;
#X obj 203 144 spigot;
#X obj 381 696 expr if($f1 == $f3 && $f2 ==$f3\\\, 0\\\,1);
#X obj 381 776 s allow_increment;
#X obj 238 107 r allow_increment;
#X obj 299 696 r bigreset;
#X msg 299 722 1;
#X obj 312 22 r start;
#X text -40 -232 Robotic Guitar Pedal Recorder;
#X text 371 -167 Emergency Stop&Reset;
#X text 225 -167 Start;
#X obj 1195 -76 s recSteps;
#X obj 371 204 r recSteps;
#X msg 1195 -105 6, f 21;
#X obj 1195 -130 loadbang;
#X obj 1273 -130 r bigreset;
#X floatatom 371 230 5 0 0 0 - - - 12;
#X text 1195 -167 Pot Steps including 0;
#X obj 835 -142 loadbang;
#X obj 834 -92 s mmdelay;
#X text 835 -167 Delay Stop Recording;
#X msg 834 -118 500;
#X msg 1008 -118 5000;
#X obj 1484 -278 bng 25 250 50 0 empty empty empty 17 7 0 10 #ffffff #000000 #000000;
#X text 1484 -309 Short Test;
#X msg 1484 -246 0;
#X msg 1522 -246 1000;
#N canvas 0 50 450 300 mysel2 0;
#X obj 434 151 inlet;
#X obj 576 151 inlet;
#X obj 434 177 bng 25 250 50 0 empty empty empty 17 7 0 10 #ffffff #000000 #000000;
#X obj 576 208 vradio 20 1 0 2 empty empty empty 0 -8 0 10 #ffffff #000000 #000000 0;
#X floatatom 576 284 2 0 0 0 - - - 16;
#X obj 539 312 moses;
#X obj 539 347 bng 25 250 50 0 empty empty empty 17 7 0 10 #ffffff #000000 #000000;
#X msg 539 284 0;
#X obj 434 312 moses;
#X msg 434 284 1;
#X obj 471 347 bng 25 250 50 0 empty empty empty 17 7 0 10 #ffffff #000000 #000000;
#X obj 471 284 + 1;
#X obj 539 405 outlet;
#X obj 471 405 outlet;
#X connect 0 0 2 0;
#X connect 1 0 3 0;
#X connect 2 0 7 0;
#X connect 2 0 9 0;
#X connect 3 0 4 0;
#X connect 4 0 5 1;
#X connect 4 0 11 0;
#X connect 5 0 6 0;
#X connect 6 0 12 0;
#X connect 7 0 5 0;
#X connect 8 1 10 0;
#X connect 9 0 8 0;
#X connect 10 0 13 0;
#X connect 11 0 8 1;
#X restore 760 180 pd mysel2;
#X obj 844 75 vradio 20 1 1 2 empty empty empty 0 -8 0 10 #ffffff #000000 #000000 0;
#X obj 819 207 bng 25 250 50 0 empty empty empty 17 7 0 10 #ffffff #000000 #000000;
#X obj 760 207 bng 25 250 50 0 empty empty empty 17 7 0 10 #ffffff #000000 #000000;
#X msg 819 243 ./db_input_short.wav;
#X text 872 94 ./db_input_short.wav;
#X text 872 73 ./db_input.wav;
#X msg 760 269 ./db_input.wav;
#X msg 1581 -246 1;
#X obj 678 63 bng 19 250 50 0 empty empty empty 17 7 0 10 #ffffff #000000 #000000;
#N canvas 0 50 450 300 mysel2 0;
#X obj 434 151 inlet;
#X obj 576 151 inlet;
#X obj 434 177 bng 25 250 50 0 empty empty empty 17 7 0 10 #ffffff #000000 #000000;
#X obj 576 208 vradio 20 1 0 2 empty empty empty 0 -8 0 10 #ffffff #000000 #000000 0;
#X floatatom 576 284 2 0 0 0 - - - 16;
#X obj 539 312 moses;
#X obj 539 347 bng 25 250 50 0 empty empty empty 17 7 0 10 #ffffff #000000 #000000;
#X msg 539 284 0;
#X obj 434 312 moses;
#X msg 434 284 1;
#X obj 471 347 bng 25 250 50 0 empty empty empty 17 7 0 10 #ffffff #000000 #000000;
#X obj 471 284 + 1;
#X obj 539 405 outlet;
#X obj 471 405 outlet;
#X connect 0 0 2 0;
#X connect 1 0 3 0;
#X connect 2 0 7 0;
#X connect 2 0 9 0;
#X connect 3 0 4 0;
#X connect 4 0 5 1;
#X connect 4 0 11 0;
#X connect 5 0 6 0;
#X connect 6 0 12 0;
#X connect 7 0 5 0;
#X connect 8 1 10 0;
#X connect 9 0 8 0;
#X connect 10 0 13 0;
#X connect 11 0 8 1;
#X restore 202 751 pd mysel2;
#X obj 773 140 r start;
#X obj 1365 -130 vradio 20 1 1 2 arduino empty empty 0 -8 0 10 #ffffff #000000 #000000 1;
#X text 1393 -132 OFF;
#X text 1393 -111 ON;
#X text 1365 -167 Arduino;
#X obj 222 696 r arduino;
#X floatatom 222 722 5 0 0 0 - - - 12;
#X obj 202 786 bng 25 250 50 0 empty empty empty 17 7 0 10 #ffffff #000000 #000000;
#X obj 248 786 bng 25 250 50 0 empty empty empty 17 7 0 10 #ffffff #000000 #000000;
#X msg 37 42 open 1, f 7;
#X msg 37 69 open 2, f 7;
#X msg 37 94 open 3, f 7;
#X msg 37 121 open 4, f 8;
#X msg -40 392 all_pots_to_min 1;
#X msg -40 425 all_pots_to_max 1;
#X connect 3 0 6 0;
#X connect 4 0 6 0;
#X connect 5 0 6 0;
#X connect 8 0 130 0;
#X connect 9 0 23 0;
#X connect 10 0 13 0;
#X connect 11 0 13 0;
#X connect 12 0 13 0;
#X connect 13 0 14 0;
#X connect 13 0 50 0;
#X connect 13 1 9 0;
#X connect 16 0 28 0;
#X connect 16 0 51 0;
#X connect 17 0 28 0;
#X connect 18 0 28 0;
#X connect 19 0 25 0;
#X connect 19 0 28 0;
#X connect 20 0 19 0;
#X connect 20 0 42 0;
#X connect 24 0 121 0 32.................CA...n5++++P....p9+++WH....;
#X connect 25 0 26 0;
#X connect 26 0 17 0;
#X connect 26 0 48 0;
#X connect 27 0 18 0;
#X connect 29 0 116 0;
#X connect 31 0 20 0;
#X connect 32 0 38 0;
#X connect 33 0 31 2;
#X connect 34 0 40 0;
#X connect 37 0 26 1;
#X connect 38 0 41 0;
#X connect 38 1 31 1;
#X connect 39 0 31 0;
#X connect 40 0 39 1;
#X connect 41 0 39 0;
#X connect 43 0 44 0;
#X connect 45 0 11 0;
#X connect 46 0 18 0;
#X connect 47 0 49 0 32.................H..........B..........A....;
#X connect 48 0 10 0;
#X connect 49 0 121 0 32.................f....r.....H....K....HF....;
#X connect 50 0 52 0;
#X connect 51 0 53 0;
#X connect 56 0 55 0;
#X connect 57 0 54 0;
#X connect 58 0 21 0;
#X connect 59 0 60 0;
#X connect 62 0 58 0;
#X connect 64 0 131 0;
#X connect 66 0 80 0;
#X connect 67 0 72 0;
#X connect 67 0 75 0;
#X connect 67 0 82 0;
#X connect 67 0 94 0;
#X connect 68 0 95 0;
#X connect 69 0 67 0;
#X connect 70 0 71 0;
#X connect 71 0 77 0;
#X connect 71 0 83 0;
#X connect 71 0 90 0;
#X connect 71 0 94 1;
#X connect 72 0 70 0;
#X connect 73 0 69 4;
#X connect 73 0 70 4;
#X connect 73 0 77 1;
#X connect 73 0 75 1;
#X connect 73 0 94 2;
#X connect 74 0 73 0;
#X connect 75 0 79 0;
#X connect 76 0 81 0;
#X connect 77 0 78 0;
#X connect 78 0 76 0;
#X connect 79 0 66 0;
#X connect 80 0 64 0;
#X connect 81 0 64 0;
#X connect 84 0 85 0;
#X connect 85 0 68 0;
#X connect 86 0 69 2;
#X connect 87 0 70 2;
#X connect 88 0 89 0;
#X connect 89 0 81 0;
#X connect 89 0 80 0;
#X connect 90 0 91 0;
#X connect 91 0 92 0;
#X connect 93 0 97 0;
#X connect 94 0 96 0;
#X connect 95 0 69 0;
#X connect 96 0 93 0;
#X connect 98 0 95 1;
#X connect 99 0 100 0;
#X connect 100 0 93 0;
#X connect 101 0 85 0;
#X connect 106 0 110 0;
#X connect 107 0 105 0;
#X connect 108 0 107 0;
#X connect 109 0 107 0;
#X connect 110 0 74 0;
#X connect 112 0 115 0;
#X connect 115 0 113 0;
#X connect 116 0 35 0;
#X connect 117 0 119 0 32.................D..........A.........b.....;
#X connect 117 0 120 0 32.................D....XB....A....l....b.....;
#X connect 117 0 129 0 32.................D....DF....A....gA...b.....;
#X connect 119 0 113 0 48.................G....bW++++A....20+++WA...vc8+++U....bW++++g....;
#X connect 120 0 35 0 32.................S....7e++++D....+2+++eH....;
#X connect 121 0 124 0;
#X connect 121 1 123 0;
#X connect 122 0 121 1;
#X connect 123 0 125 0;
#X connect 124 0 128 0;
#X connect 125 0 12 0;
#X connect 128 0 12 0;
#X connect 129 0 122 0 48.................LC...Xn+++Oy....F5+++2L....H8+++MC....R+++uKA...;
#X connect 130 0 121 0 32.................f....rD....H....KA...HF....;
#X connect 131 0 139 0;
#X connect 131 1 65 0;
#X connect 131 1 140 0;
#X connect 132 0 121 0;
#X connect 137 0 138 0;
#X connect 138 0 131 1;
#X connect 141 0 6 0;
#X connect 142 0 6 0;
#X connect 143 0 6 0;
#X connect 144 0 6 0;
#X connect 145 0 64 0;
#X connect 146 0 64 0;
