#N canvas 827 239 527 327 12;
#X obj 711 205 cnv 15 221 829 empty empty Serial\ Arduino\ Communication 20 12 0 14 #88d1c9 #000000 0;
#X msg 845 233 close, f 7;
#X msg 735 233 devices;
#X obj 767 407 r to_arduino, f 14;
#X obj 947 205 cnv 15 484 829 empty empty Filename\ &\ Counter 20 12 0 14 #ff673f #000000 0;
#X obj 977 1007 s to_arduino;
#X floatatom 1156 969 5 0 0 0 - - - 12;
#X obj 1156 884 pak 0 0 0;
#X obj 1156 914 expr if($f1 == $f3 && $f2 ==$f3\\\, 0\\\,1);
#X obj 1156 994 s allow_increment;
#X obj 1074 914 r bigreset;
#X msg 1074 940 1;
#X obj 997 914 r arduino;
#X floatatom 997 940 5 0 0 0 - - - 12;
#X msg 735 610 all_pots_to_min 1;
#X msg 735 643 all_pots_to_max 1;
#X msg 812 260 open 1, f 7;
#X msg 812 287 open 2, f 7;
#X msg 812 312 open 3, f 7;
#X msg 812 339 open 4, f 8;
#X msg 880 260 open 5, f 7;
#X msg 880 287 open 6, f 7;
#X msg 880 312 open 7, f 7;
#X msg 880 339 open 8, f 8;
#N canvas 0 50 450 300 format_serial_msg 0;
#X msg 765 670 44 32;
#X text 764 650 space and comma;
#X obj 601 450 cyclone/sprintf print [%s;
#X obj 994 451 cyclone/sprintf print %s];
#X obj 635 672 any;
#X obj 979 670 any;
#X obj 635 742 outlet;
#X obj 601 492 t b b b a;
#X obj 601 374 unpack s f;
#X obj 601 302 inlet;
#X connect 0 0 6 0;
#X connect 2 0 7 0;
#X connect 3 0 5 1;
#X connect 4 0 6 0;
#X connect 5 0 6 0;
#X connect 7 0 5 0;
#X connect 7 1 0 0;
#X connect 7 2 4 0;
#X connect 7 3 4 1;
#X connect 8 0 2 0;
#X connect 8 1 3 0;
#X connect 9 0 8 0;
#X restore 977 884 pd format_serial_msg;
#X msg 992 667 0;
#X msg 1034 667 0.5;
#X msg 1092 667 1;
#X obj 735 431 comport 6 115200, f 19;
#X msg 652 358 verbose \$1;
#X obj 621 360 tgl 15 0 empty empty empty 0 -6 0 8 #e8e828 #f430f0 #000000 0 1;
#X obj 625 304 loadbang;
#X obj 846 481 print other;
#X obj 735 521 serial_print any;
#X obj 735 543 print;
#X msg 977 855 top_pos \$1;
#X msg 1109 855 right_pos \$1;
#X msg 1272 662 0;
#X msg 1314 662 0.5;
#X msg 1372 662 1;
#X connect 1 0 28 0;
#X connect 2 0 28 0;
#X connect 3 0 28 0;
#X connect 6 0 9 0;
#X connect 7 0 8 0;
#X connect 8 0 6 0;
#X connect 10 0 11 0;
#X connect 11 0 6 0;
#X connect 12 0 13 0;
#X connect 14 0 24 0;
#X connect 15 0 24 0;
#X connect 16 0 28 0;
#X connect 17 0 28 0;
#X connect 18 0 28 0;
#X connect 19 0 28 0;
#X connect 20 0 28 0;
#X connect 21 0 28 0;
#X connect 22 0 28 0;
#X connect 23 0 28 0;
#X connect 24 0 5 0;
#X connect 25 0 35 0;
#X connect 26 0 35 0;
#X connect 27 0 35 0;
#X connect 28 0 33 0;
#X connect 28 1 32 0;
#X connect 29 0 28 0;
#X connect 30 0 29 0;
#X connect 31 0 30 0;
#X connect 33 0 34 0;
#X connect 35 0 24 0;
#X connect 36 0 24 0;
#X connect 37 0 36 0;
#X connect 39 0 36 0;
